<svg xmlns="http://www.w3.org/2000/svg" xml:space="preserve" width="1500" height="1500" data-id="lg_JNjFxTKQs58gDtvwqm" data-version="1" viewBox="0 0 1500 1500"><path stroke="transparent" d="M0 0h1500v1500H0z"/><g data-padding="20"><g transform="translate(-571.429 -582.08)scale(1.72194)"><rect width="560" height="177.41" x="86.907" y="284.845" fill="none" rx="0" ry="0" transform="translate(400.5 375.69)"/><path fill="#ffebfc" d="m568.257 767.48 6.12-.16v31.24h-79.6v-5.49l7.69-.16v-93.88l-7.69-.16v-5.5h76.46v30.46l-6.12-.15-.32-7.85q-17.43-10.84-36.27-18.22l.32 43.65h29.36v5.81h-29.36l.31 47.1q20.1-7.69 38.78-18.84Zm13.97-6.75.78-5.97 49.14-1.25-1.57 7.22Zm89.02-50.72q0 5.02 2.82 9.26 2.83 4.24 7.07 7.54 4.24 3.29 11.62 8.16 8.63 5.65 13.81 9.97t8.87 10.36q3.69 6.05 3.69 13.58 0 8.32-4.55 15.62t-13.66 11.86q-9.11 4.55-21.98 4.55-27.63 0-39.25-21.98l17.74-13.66q7.54 15.54 16.96 30.14h.15q4.56 0 8.48-2.43 3.93-2.43 6.28-6.36 2.36-3.92 2.36-8.32 0-4.71-2.75-8.71-2.75-4.01-6.83-7.07t-11.15-7.45q-8.47-5.34-13.66-9.42-5.18-4.09-8.87-9.97-3.69-5.89-3.69-13.58 0-8.64 4.95-15.78 4.95-7.15 14.13-11.23t21.59-4.08q12.09 0 19.86 3.85 7.77 3.84 14.05 10.91l-16.49 16.64q-8.32-13.82-16.79-25.91-7.07 0-10.92 3.85-3.84 3.85-3.84 9.66m163.28-11.14-7.7.16v93.88l7.7.16v5.49h-41.45v-5.49l7.69-.16v-43.64h-35.17v43.64l7.7.16v5.49h-41.45v-5.49l7.69-.16v-93.88l-7.69-.16v-5.5h41.45v5.5l-7.7.16v44.43h35.17v-44.43l-7.69-.16v-5.5h41.45Zm59.51-7.85q15.39 0 26.93 5.97 11.54 5.96 17.89 17.58 6.36 11.62 6.36 28.42 0 10.67-3.77 22.06-3.76 11.38-10.99 20.17-7.53 7.06-17.27 11.38-9.73 4.32-20.72 4.32-15.23 0-26.77-5.97-11.54-5.96-17.9-17.58-6.35-11.62-6.35-28.42 0-10.52 3.92-21.98 3.93-11.46 11.15-20.25 7.38-7.07 17.03-11.38 9.66-4.32 20.49-4.32m-24.65 46.94q0 18.21 4.71 29.36t14.29 16.41 24.8 6.04q1.89-7.85 3.07-18.44 1.17-10.6 1.17-17.35 0-18.37-4.79-29.6-4.78-11.22-14.52-16.56-9.73-5.34-24.8-5.97-1.73 8.17-2.83 19t-1.1 17.11m174.73-13.81q0 16.64-14.21 26.29-14.2 9.66-41.52 10.29v32.18l17.11.16v5.49h-50.87v-5.49l7.7-.16v-93.88l-7.7-.16v-5.5l30.3.32 23.4-1.1q11.3 0 19.39 4.24 8.08 4.24 12.24 11.46t4.16 15.86m-27.94 4.55q0-8.32-3.61-15.15-3.62-6.83-9.97-10.76-6.36-3.92-14.21-3.92v55.73q13.03-.78 20.41-7.61t7.38-18.29"/><rect width="126.647" height="47.46" x="303.584" y="349.82" fill="none" rx="0" ry="0" transform="translate(401.18 489.37)"/><path fill="#ff8700" d="M707.937 874.51q-.08-.12-.22-.47l-.31-.78q-.16-.43-.29-.8-.12-.37-.16-.57l-.02-.39q-.02-.39-.02-.64 0-.86.08-1.76t.37-1.8q.12-.21.45-.85.33-.63.72-1.33t.72-1.33q.33-.64.49-.84 1.02-1.81 2.6-3.2 1.58-1.4 3.22-2.63.17-.12.72-.57.56-.45 1.25-.94.7-.5 1.29-.95.6-.45.72-.53.04-.04.13-.12.08-.09.12-.09v-.2q-1.23-.25-2.4-.55-1.17-.31-2.07-.91-.9-.59-1.44-1.51-.53-.93-.53-2.36 0-1.77.98-3.02.99-1.25 2.44-2.09 1.46-.84 3.14-1.23t3.12-.39q.74 0 1.54.1.8.11 1.47.41.68.31 1.11.86.43.56.43 1.5 0 .58-.35.88-.35.31-.88.31-.49 0-.66-.27-.16-.26-.39-.61-.22-.35-.69-.64-.47-.28-1.54-.28-.9 0-1.78.14-.89.14-1.75.06-.7.21-1.41.64-.72.43-1.29 1-.58.58-.95 1.29-.37.72-.37 1.54 0 1.15.58 1.75.57.59 1.45.86.88.26 1.89.3 1 .05 1.89.15.88.1 1.45.41.58.31.58 1.09v.36l-1.23 1.19q-.21.21-.72.56t-1.11.78q-.59.43-1.27.94t-1.27.96q-.6.46-1.11.82-.51.37-.72.58-1.15.94-2.34 2.15-1.18 1.21-2.19 2.63-1 1.41-1.64 2.95t-.64 3.14q0 1.88.74 2.7t2.46.82q1.68 0 3.39-.49 1.7-.49 3.34-1.29t3.14-1.8q1.49-1.01 2.77-2.03h.16q.33 0 .59.18.27.18.27.51 0 .21-.22.52-.23.3-.5.55-.26.25-.47.43l-.2.18q-1.36 1.03-2.89 1.99-1.54.97-3.16 1.75t-3.33 1.25q-1.7.47-3.46.47h-1.56q-1.35-.37-2.26-1.44m21.29-13q.12-.33.6-.65.47-.33.76-.41 1.92-.09 3.95-.25t4.08-.33q2.06-.16 4.06-.31 2.01-.14 3.9-.14 1.4 0 2.81.12 1.42.13 2.69.58l-.7.7-.7.08q-.69.08-1.82.2l-2.52.29q-1.4.16-2.86.31-1.45.14-2.76.26-1.32.13-2.3.21-1.85.16-3.77.24-1.93.09-3.74.09-.2 0-.49-.04-.29-.05-.59-.15-.31-.1-.5-.31-.18-.2-.1-.49m26.58 8.82q-.33.16-.7.19-.37.02-.74.02-.36 0-.73.02t-.74.18q-.7.08-.9-.1-.21-.19-.13-.51.08-.33.45-.74t.84-.7q.48-.29 1.03-.41t1 .04q-.2-.74.05-1.27.24-.53.98-.53.37 0 .68.06.3.06.47.35.61-.37 1.64-1.25 1.02-.89 2.11-1.81t1.99-1.64 1.23-.72q.12 0 .33.02.2.02.43.11.23.08.37.18t.14.31v1.76q-.28 1.15-.55 2.15-.27 1.01-.45 1.97-.19.97-.27 1.95-.08.99-.08 2.09.66 0 1.58-.28.92-.29 1.86-.7.95-.41 1.77-.84t1.31-.72q.08-.04.37-.29.29-.24.61-.51.33-.27.64-.49.31-.23.39-.31t.41-.22q.33-.15.37-.19.16-.04.31.1.14.15.26.33.13.19.19.37t.06.23q0 .41-.33.82t-.78.76q-.45.34-.92.65t-.72.56q-.33.16-1.13.53t-1.7.78-1.7.78-1.13.53q-.08.04-.37.1-.28.06-.61.19-.33.12-.64.18t-.39.1q-.37.13-.55.41-.19.29-.37.58-.19.29-.45.49-.27.21-.84.12-.04-.04-.35-.18t-.39-.23q-.99-.69-1.68-1.31-.7-.61-1.27-1.21-.58-.59-1.09-1.29t-1.17-1.56m2.58-1.64q.29.62.56 1.19.26.57.63 1.09.37.51.84.88.48.37 1.17.45.09-.62.21-1.48t.29-1.8q.16-.95.38-1.87.23-.92.52-1.62h-.41q-.66.45-1.23.9-.54.41-1.07.8t-.86.68l-.12.12q-.09.09-.13.09-.04.08-.37.28-.32.21-.41.29m4.6-3.77q-.13 0-.13.18 0 .19.13.19.16 0 .16-.19 0-.18-.16-.18"/><path fill="#ff8700" d="M781.947 866.89q-.09-.17-.27-.48-.18-.3-.43-.3-.78 0-1.58.67-.8.68-1.52 1.6-.71.93-1.23 1.87-.51.94-.63 1.48-.17.53-.17 1.27 0 .73-.1 1.39t-.45 1.11-1.21.45q-.53 0-.72-.23-.18-.22-.18-.75.28-1.97.51-3.24.22-1.28.41-2.24.18-.96.37-1.89.18-.92.43-2.23t.53-3.22q.29-1.91.7-4.86 0-.62.08-1.75.08-1.12.31-2.42.22-1.29.59-2.62t.93-2.4q.55-1.07 1.29-1.74.74-.68 1.72-.68.7 0 1.13.47t.66 1.13q.22.66.26 1.37.04.72.04 1.17 0 1.03-.16 1.95t-.41 1.85q-.25.92-.53 1.84-.29.93-.5 1.83l-2.62 5-1.48 3.2.21.45q.86-1.02 1.76-1.58.9-.55 2.26-.63.61-.04 1.04.37t.72 1.04q.29.64.43 1.29.14.66.19 1.07 0 .25-.05.78-.04.53-.08 1.23t-.06 1.46.06 1.41q.08.66.35 1.13t.72.55q1.6-.2 2.85-.55t2.19-.98q.95-.64 1.58-1.63.64-.98.97-2.42.28-.41.82-.41.61 0 .8.46.18.45.18.98 0 1.64-1.04 2.89-1.05 1.25-2.65 2.07t-3.45 1.25q-1.84.43-3.4.43-.98 0-1.35-.67-.37-.68-.43-1.64-.07-.97-.02-1.95.04-.99 0-1.6 0-.21-.05-.68-.04-.47-.1-1-.06-.54-.14-1.03t-.08-.69m-3.37-9.85v.41q0 .29.02.53.02.25.02.46v.24l.21.21q.41-.25.76-.86.35-.62.63-1.48.29-.86.52-1.83.22-.96.39-1.9.16-.95.26-1.73.11-.77.11-1.27 0-.16-.02-.61-.03-.45-.07-.54l-.2-.41q-.99.78-1.52 1.85t-.78 2.21q-.24 1.15-.29 2.38-.04 1.23-.04 2.34"/><path fill="#ff8700" d="M793.877 872.91q0-.04.04-.28.04-.25.09-.52.04-.26.08-.49.04-.22.04-.3v-.42l.57-2.58q.7-1.48 1.46-2.83t1.74-2.38q.99-1.02 2.28-1.64 1.29-.61 3.14-.61.37 0 .92.22.55.23 1.11.56.55.32 1.02.67t.72.64q1.27-.21 1.85-.23.57-.02.98-.04t.88-.14q.47-.13 1.46-.54.69-.2 1.35-.2.29 0 .55.25.27.24.27.57 0 .41-.29.74-.28.33-.69.41l-5.13 1.15-.45.2q-.04 2.22-.99 4.23-.94 2.01-2.5 3.52-1.56 1.52-3.61 2.4t-4.26.88q-.17 0-.54-.02-.36-.02-.49-.02-.9-.37-1.25-1.35t-.35-1.85m2.63.82q.04.21.33.21h.41q1.47 0 3.03-.76t2.81-1.97 2.05-2.75q.8-1.53.8-3.09-1.31 0-2.62-.23-1.32-.22-2.55-.22h-.04l-3.4 3.61q-.29.28-.45.78-.17.49-.25 1.06-.08.58-.12 1.15t-.04 1.03v.57q0 .45.04.61m15.3 11.12q0-1.19.28-2.65.29-1.45.62-2.91.33-1.45.61-2.85.29-1.39.29-2.62v-.33l.99-2.75q.53-1.19 1.23-2.46.69-1.27 1.57-2.36.89-1.09 2.04-1.84 1.14-.76 2.58-.97.49-.08 1.07.19.57.26 1.08.67.52.41.84.95.33.53.41 1.02v1.77q0 1.14-.32 2.21-.33 1.07-.33 2.05v.12q.12-.08.57-.28.45-.21 1.05-.45.59-.25 1.31-.54.72-.28 1.37-.53.66-.25 1.17-.39.52-.14.72-.14.49 0 .6.14.1.14.1.47 0 .45-.54.9-.53.46-1.37.87t-1.85.75q-1 .35-1.92.64-.93.29-1.62.55-.7.27-.95.39-.45.33-.84.7t-.8.66q-.41.28-.86.49-.45.2-1.02.2-.87 0-1.66-.47-.8-.47-1.46-.96l-.21.16q0 .04-.26 1.11-.27 1.07-.62 2.48-.35 1.42-.7 2.81-.34 1.4-.55 2.17-.08.46-.12.93t-.19.9q-.14.43-.47.72-.33.28-.9.28h-.53q-.25-.49-.33-.88t-.08-.92m6.35-13.25-.86 1.15q.45.29.95.33.49.04.96-.02t.94-.19q.47-.12.93-.12.08 0 .36-.02.29-.02.33-.02.5-.25.78-.9.29-.66.43-1.4.15-.74.19-1.45.04-.72.04-1.13 0-.37-.04-.78t-.19-.76q-.14-.35-.39-.59-.24-.25-.69-.25-.09 0-.27.02-.19.02-.27.02-.16.49-.67 1.33-.52.84-1.07 1.75-.55.9-1.01 1.74-.45.84-.45 1.29"/></g><path fill="transparent" stroke="transparent" stroke-width="1.786" d="M250 548.214h1000v403.572H250z"/></g></svg>